<svg xmlns="http://www.w3.org/2000/svg" width="512" height="512" viewBox="0 0 110.0 110.0"><defs><linearGradient id="ol" x1="0" y1="0" x2="1" y2="1"><stop offset="0" stop-color="#FF2D95"/><stop offset=".5" stop-color="#9A3DFF"/><stop offset="1" stop-color="#22E4FF"/></linearGradient><linearGradient id="bl" x1="0" y1="0" x2="1" y2="0"><stop offset="0" stop-color="#FF2D95"/><stop offset="1" stop-color="#9A3DFF"/></linearGradient><filter id="g" x="-60%" y="-60%" width="220%" height="220%"><feGaussianBlur stdDeviation="1.5"/></filter><filter id="pg" x="-40%" y="-40%" width="180%" height="180%"><feGaussianBlur stdDeviation="2.1"/></filter></defs><g transform="translate(19.0 5.0)"><rect x="0" y="0" width="72" height="100" fill="rgba(14,13,26,.86)"/><rect x="0.625" y="0.625" width="70.75" height="98.75" fill="none" stroke="url(#ol)" stroke-width="1.25"/><g filter="url(#g)" opacity="0.8"><rect x="17.5" y="14.0" width="37.0" height="72.0" rx="18.5" fill="#07060D" stroke="#22E4FF" stroke-width="2.6"/><path d="M36.0 18.7 L45.6 32.4 H26.4 Z" fill="#22E4FF"/></g><rect x="17.5" y="14.0" width="37.0" height="72.0" rx="18.5" fill="#07060D" stroke="#22E4FF" stroke-width="2.6"/><path d="M25.5 29.5 H46.5" stroke="#F3F0FF" stroke-width="2.8" stroke-linecap="round"/><path d="M25.5 42.1 H46.5" stroke="#F3F0FF" stroke-width="2.8" stroke-linecap="round"/><path d="M25.5 54.7 H46.5" stroke="#F3F0FF" stroke-width="2.8" stroke-linecap="round"/><path d="M25.5 67.3 H46.5" stroke="#F3F0FF" stroke-width="2.8" stroke-linecap="round"/><path d="M25.5 78.8 H46.5" stroke="#F3F0FF" stroke-width="2.8" stroke-linecap="round"/><path d="M36.0 18.7 L45.6 32.4 H26.4 Z" fill="#22E4FF"/></g></svg>