<svg xmlns="http://www.w3.org/2000/svg" width="512" height="512" viewBox="0 0 62.0 62.0"><defs><linearGradient id="ol" x1="0" y1="0" x2="1" y2="1"><stop offset="0" stop-color="#FF2D95"/><stop offset=".5" stop-color="#9A3DFF"/><stop offset="1" stop-color="#22E4FF"/></linearGradient><linearGradient id="bl" x1="0" y1="0" x2="1" y2="0"><stop offset="0" stop-color="#FF2D95"/><stop offset="1" stop-color="#9A3DFF"/></linearGradient><filter id="g" x="-60%" y="-60%" width="220%" height="220%"><feGaussianBlur stdDeviation="1.5"/></filter><filter id="pg" x="-40%" y="-40%" width="180%" height="180%"><feGaussianBlur stdDeviation="2.1"/></filter></defs><g transform="translate(5.0 5.0)"><rect x="0" y="0" width="52" height="52" fill="#FF2D95" filter="url(#pg)" opacity=".7"/><rect x="0" y="0" width="52" height="52" fill="rgba(243,240,255,.95)"/><rect x="0" y="49.5" width="52" height="2.5" fill="url(#bl)"/><g filter="url(#g)" opacity="0.45"><path d="M33.50 9.50 L17.00 26.00 L33.50 42.50" fill="none" stroke="#22E4FF" stroke-width="8.0" stroke-linejoin="miter"/></g><path d="M33.50 9.50 L17.00 26.00 L33.50 42.50" fill="none" stroke="#07060D" stroke-width="8.0" stroke-linejoin="miter"/><mask id="cm2" maskUnits="userSpaceOnUse" x="-10" y="-10" width="140" height="140"><path d="M33.50 9.50 L17.00 26.00 L33.50 42.50" fill="none" stroke="#fff" stroke-width="8.0" stroke-linejoin="miter"/></mask><path d="M36.89 9.50 L20.39 26.00 L36.89 42.50" fill="none" stroke="#22E4FF" stroke-width="3.8000000000000003" stroke-linejoin="miter" mask="url(#cm2)"/></g></svg>